<svg xmlns="http://www.w3.org/2000/svg" viewBox="0 0 96 96">
  <g stroke="#5A3E36" stroke-width="2.8" stroke-linecap="round" stroke-linejoin="round">
    <ellipse cx="48" cy="15" rx="18" ry="5.2" fill="#5F8D4E"/>
    <path d="M30 15v2.2c0 2.1 8.1 3.9 18 3.9s18-1.8 18-3.9V15" fill="#5F8D4E"/>
    <path d="M48 20C61 20 71 26 76 36c4 8.2 4 15.8 0 24-5 10-15 16-28 16s-23-6-28-16c-4-8.2-4-15.8 0-24 5-10 15-16 28-16Z" fill="#F6E7A1"/>
    <path d="M26 49c5.5 2.5 13 3.8 22 3.8s16.5-1.3 22-3.8" fill="none" stroke-width="2.1"/>
    <path d="M24 60c6 3 14 4.5 24 4.5s18-1.5 24-4.5" fill="none" stroke-width="2.1"/>
    <circle cx="43.5" cy="57" r="1.5" fill="#5A3E36" stroke="none"/>
    <circle cx="52.5" cy="57" r="1.5" fill="#5A3E36" stroke="none"/>
    <path d="M45.5 61h5" fill="none" stroke-width="2.2"/>
  </g>
</svg>
